<mxfile host="app.diagrams.net" modified="2021-08-24T18:03:39.860Z" agent="5.0 (Windows NT 10.0; Win64; x64) AppleWebKit/537.36 (KHTML, like Gecko) Chrome/92.0.4515.159 Safari/537.36" etag="l1r15j-90R6BbRqA8Lmu" version="14.9.0" type="github">
  <diagram id="E60ewp_JKDYPMnAaGes8" name="Page-1">
    <mxGraphModel dx="573" dy="390" grid="1" gridSize="10" guides="1" tooltips="1" connect="1" arrows="1" fold="1" page="1" pageScale="1" pageWidth="827" pageHeight="1169" math="0" shadow="0">
      <root>
        <mxCell id="0" />
        <mxCell id="1" parent="0" />
        <mxCell id="hae0mr_bkcof_CFdK_FG-2" value="master" style="endArrow=none;html=1;strokeWidth=5;sketch=0;jumpStyle=none;" edge="1" parent="1">
          <mxGeometry x="-0.96" y="10" width="50" height="50" relative="1" as="geometry">
            <mxPoint x="200" y="210" as="sourcePoint" />
            <mxPoint x="700" y="210" as="targetPoint" />
            <mxPoint as="offset" />
          </mxGeometry>
        </mxCell>
        <mxCell id="hae0mr_bkcof_CFdK_FG-3" value="dev-sprint-1" style="endArrow=none;html=1;endSize=7;strokeColor=#FF0000;strokeWidth=5;" edge="1" parent="1">
          <mxGeometry x="-0.1429" y="40" width="50" height="50" relative="1" as="geometry">
            <mxPoint x="280" y="280" as="sourcePoint" />
            <mxPoint x="280" y="210" as="targetPoint" />
            <mxPoint as="offset" />
          </mxGeometry>
        </mxCell>
        <mxCell id="hae0mr_bkcof_CFdK_FG-4" value="" style="endArrow=none;html=1;endSize=7;strokeColor=#FF0000;strokeWidth=5;" edge="1" parent="1">
          <mxGeometry width="50" height="50" relative="1" as="geometry">
            <mxPoint x="280" y="280" as="sourcePoint" />
            <mxPoint x="440" y="280" as="targetPoint" />
          </mxGeometry>
        </mxCell>
        <mxCell id="hae0mr_bkcof_CFdK_FG-6" value="dev-offer-service" style="endArrow=none;html=1;endSize=7;strokeWidth=5;strokeColor=#66FF66;" edge="1" parent="1">
          <mxGeometry x="-1" y="14" width="50" height="50" relative="1" as="geometry">
            <mxPoint x="300" y="330" as="sourcePoint" />
            <mxPoint x="300" y="280" as="targetPoint" />
            <Array as="points">
              <mxPoint x="300" y="300" />
            </Array>
            <mxPoint x="4" y="10" as="offset" />
          </mxGeometry>
        </mxCell>
        <mxCell id="hae0mr_bkcof_CFdK_FG-7" value="" style="endArrow=none;html=1;endSize=7;strokeColor=#66FF66;strokeWidth=5;" edge="1" parent="1">
          <mxGeometry width="50" height="50" relative="1" as="geometry">
            <mxPoint x="300" y="330" as="sourcePoint" />
            <mxPoint x="360" y="330" as="targetPoint" />
          </mxGeometry>
        </mxCell>
        <mxCell id="hae0mr_bkcof_CFdK_FG-8" value="" style="endArrow=none;html=1;endSize=7;strokeWidth=5;strokeColor=#3333FF;" edge="1" parent="1">
          <mxGeometry width="50" height="50" relative="1" as="geometry">
            <mxPoint x="310" y="280" as="sourcePoint" />
            <mxPoint x="310" y="240" as="targetPoint" />
          </mxGeometry>
        </mxCell>
        <mxCell id="hae0mr_bkcof_CFdK_FG-9" value="dev-order-service" style="endArrow=none;html=1;endSize=7;strokeWidth=5;strokeColor=#3333FF;" edge="1" parent="1">
          <mxGeometry x="0.1429" y="-10" width="50" height="50" relative="1" as="geometry">
            <mxPoint x="380" y="240" as="sourcePoint" />
            <mxPoint x="310" y="240" as="targetPoint" />
            <mxPoint as="offset" />
          </mxGeometry>
        </mxCell>
        <mxCell id="hae0mr_bkcof_CFdK_FG-10" value="merge" style="endArrow=classic;html=1;endSize=7;strokeColor=#3333FF;strokeWidth=2;" edge="1" parent="1">
          <mxGeometry width="50" height="50" relative="1" as="geometry">
            <mxPoint x="380" y="240" as="sourcePoint" />
            <mxPoint x="380" y="280" as="targetPoint" />
            <mxPoint as="offset" />
          </mxGeometry>
        </mxCell>
        <mxCell id="hae0mr_bkcof_CFdK_FG-11" value="merge" style="endArrow=classic;html=1;endSize=7;strokeWidth=2;strokeColor=#66FF66;" edge="1" parent="1">
          <mxGeometry width="50" height="50" relative="1" as="geometry">
            <mxPoint x="360" y="330" as="sourcePoint" />
            <mxPoint x="360" y="280" as="targetPoint" />
          </mxGeometry>
        </mxCell>
        <mxCell id="hae0mr_bkcof_CFdK_FG-12" value="merge" style="endArrow=classic;html=1;endSize=7;strokeWidth=2;strokeColor=#FF0000;" edge="1" parent="1">
          <mxGeometry width="50" height="50" relative="1" as="geometry">
            <mxPoint x="440" y="280" as="sourcePoint" />
            <mxPoint x="440" y="210" as="targetPoint" />
          </mxGeometry>
        </mxCell>
        <mxCell id="hae0mr_bkcof_CFdK_FG-14" value="dev-sprint-2" style="endArrow=none;html=1;endSize=7;strokeWidth=5;strokeColor=#B266FF;" edge="1" parent="1">
          <mxGeometry x="0.1429" y="40" width="50" height="50" relative="1" as="geometry">
            <mxPoint x="480" y="210" as="sourcePoint" />
            <mxPoint x="480" y="140" as="targetPoint" />
            <mxPoint as="offset" />
          </mxGeometry>
        </mxCell>
        <mxCell id="hae0mr_bkcof_CFdK_FG-15" value="" style="endArrow=none;html=1;endSize=7;strokeWidth=5;strokeColor=#B266FF;" edge="1" parent="1">
          <mxGeometry width="50" height="50" relative="1" as="geometry">
            <mxPoint x="480" y="140" as="sourcePoint" />
            <mxPoint x="640" y="140" as="targetPoint" />
          </mxGeometry>
        </mxCell>
        <mxCell id="hae0mr_bkcof_CFdK_FG-16" value="" style="endArrow=classic;html=1;endSize=7;strokeColor=#B266FF;strokeWidth=2;" edge="1" parent="1">
          <mxGeometry width="50" height="50" relative="1" as="geometry">
            <mxPoint x="640" y="140" as="sourcePoint" />
            <mxPoint x="640" y="210" as="targetPoint" />
          </mxGeometry>
        </mxCell>
      </root>
    </mxGraphModel>
  </diagram>
</mxfile>
